<svg xmlns="http://www.w3.org/2000/svg" width="394.93" height="135.87" viewBox="0 0 394.93 135.87"><title>logo</title><path d="M129.82,24.75C118.41,15.09,97,53.15,67.39,52s-56.16-38.7-66-27.19S36.11,99.86,71,99.86,139.91,33.29,129.82,24.75Z" transform="translate(0 0.01)" fill="#3870ff"/><path d="M69.36,58.57c-25.32,0-57.7,63.59-50.55,75.1s26.45-26,48-27.19,37.06,36.86,45.35,27.19C119.44,125.13,94.68,58.57,69.36,58.57Z" transform="translate(0 0.01)" fill="#122e50"/><path d="M67.75,0A20.68,20.68,0,0,0,47,20.57h0C47,32,56.22,42.41,67.62,42.46S88.23,32.2,88.28,20.77A20.68,20.68,0,0,0,67.75,0Z" transform="translate(0 0.01)" fill="#122e50"/><path d="M151.83,92l16.7-24.9L151.75,42.41h12.6l11.5,17,10.8-17h12.1l-16.7,24.7L198.83,92h-12.5L174.75,74.91,163.93,92Z" transform="translate(0 0.01)" fill="#122e50"/><path d="M204.62,92V22h11.3v27.1a15.72,15.72,0,0,1,7-5.9,22.2,22.2,0,0,1,9.15-2q8.61,0,14,5.5t5.4,16.2V92h-11.2V64.31q0-6.3-3-9.9t-8.65-3.6a11.79,11.79,0,0,0-9.3,3.85Q216,58.52,216,65.11V92Z" transform="translate(0 0.01)" fill="#122e50"/><path d="M264.42,114l10.9-24.2-20.5-47.4h12.6l14,35.4,14.5-35.4h11.9L276.32,114Z" transform="translate(0 0.01)" fill="#122e50"/><path d="M313.75,92V42.41h11l.2,8.1a18,18,0,0,1,6.75-6.85,19.5,19.5,0,0,1,9.85-2.45v11.9h-3.1q-6.79,0-10.1,3.4t-3.3,10.6V92Z" transform="translate(0 0.01)" fill="#122e50"/><path d="M370.52,93.21a24.92,24.92,0,0,1-13.09-3.35,23.32,23.32,0,0,1-8.75-9.2,27.85,27.85,0,0,1-3.16-13.45,28.25,28.25,0,0,1,3.16-13.7,22.84,22.84,0,0,1,8.79-9,26,26,0,0,1,13.15-3.25,24.72,24.72,0,0,1,12.7,3.15,22.7,22.7,0,0,1,8.5,8.65,25,25,0,0,1,3.11,12.5c0,.94,0,1.77-.06,2.5a19.33,19.33,0,0,1-.25,2.4H356.93a16.52,16.52,0,0,0,2,7,12.18,12.18,0,0,0,4.64,4.75,13.19,13.19,0,0,0,6.75,1.7,12.77,12.77,0,0,0,6.95-1.8,11.9,11.9,0,0,0,4.45-5.2h11.9a24,24,0,0,1-4.44,8.2,22.48,22.48,0,0,1-7.71,6A24.84,24.84,0,0,1,370.52,93.21ZM357,62.51h26.3a11.07,11.07,0,0,0-3.89-8.7,13.72,13.72,0,0,0-9.11-3.2,14.06,14.06,0,0,0-8.64,2.9Q357.83,56.42,357,62.51Z" transform="translate(0 0.01)" fill="#122e50"/></svg>